<svg width="24" height="24" viewBox="0 0 24 24" fill="none" xmlns="http://www.w3.org/2000/svg">
<path d="M12 23.6666C5.55654 23.6666 0.333374 18.4434 0.333374 11.9999C0.333374 5.55642 5.55654 0.333252 12 0.333252C18.4435 0.333252 23.6667 5.55642 23.6667 11.9999C23.6667 18.4434 18.4435 23.6666 12 23.6666ZM12 21.3333C14.4754 21.3333 16.8494 20.3499 18.5997 18.5996C20.35 16.8492 21.3334 14.4753 21.3334 11.9999C21.3334 9.52457 20.35 7.1506 18.5997 5.40026C16.8494 3.64992 14.4754 2.66659 12 2.66659C9.52469 2.66659 7.15072 3.64992 5.40038 5.40026C3.65004 7.1506 2.66671 9.52457 2.66671 11.9999C2.66671 14.4753 3.65004 16.8492 5.40038 18.5996C7.15072 20.3499 9.52469 21.3333 12 21.3333ZM12 10.3503L15.2994 7.04975L16.9502 8.70059L13.6497 11.9999L16.9502 15.2993L15.2994 16.9501L12 13.6496L8.70071 16.9501L7.04987 15.2993L10.3504 11.9999L7.04987 8.70059L8.70071 7.04975L12 10.3503Z" fill="black"/>
</svg>
