<svg width="58" height="54" viewBox="0 0 58 54" fill="none" xmlns="http://www.w3.org/2000/svg">
<path d="M49.7143 0H5.52381C2.48571 0 0.027619 2.7 0.027619 6L0 42C0 45.3 2.48571 48 5.52381 48H27.619V42H5.52381V12L27.619 27L49.7143 12V27H55.2381V6C55.2381 2.7 52.7524 0 49.7143 0ZM27.619 21L5.52381 6H49.7143L27.619 21ZM42.3676 54L32.5905 43.38L36.4848 39.15L42.34 45.51L54.0505 32.79L58 37.02L42.3676 54Z" fill="black"/>
<path d="M49.7143 0H5.52381C2.48571 0 0.027619 2.7 0.027619 6L0 42C0 45.3 2.48571 48 5.52381 48H27.619V42H5.52381V12L27.619 27L49.7143 12V27H55.2381V6C55.2381 2.7 52.7524 0 49.7143 0ZM27.619 21L5.52381 6H49.7143L27.619 21ZM42.3676 54L32.5905 43.38L36.4848 39.15L42.34 45.51L54.0505 32.79L58 37.02L42.3676 54Z" stroke="black"/>
</svg>
